<svg width="879" height="1847" viewBox="0 0 879 1847" fill="none" xmlns="http://www.w3.org/2000/svg">
<path fill-rule="evenodd" clip-rule="evenodd" d="M138.071 0C65.9386 0 7.46345 58.4751 7.46345 130.608V282.688C7.30923 282.678 7.15364 282.673 6.99686 282.673C3.1326 282.673 0 285.806 0 289.67V535.959C0 539.823 3.1326 542.956 6.99686 542.956C7.15364 542.956 7.30923 542.951 7.46345 542.941V649.323C7.30923 649.313 7.15364 649.308 6.99686 649.308C3.1326 649.308 0 652.441 0 656.305V771.986C0 775.851 3.1326 778.983 6.99686 778.983C7.15364 778.983 7.30923 778.978 7.46345 778.968V1716.39C7.46345 1788.52 65.9387 1847 138.072 1847H741.667C813.8 1847 872.275 1788.52 872.275 1716.39V666.085C875.922 665.845 878.805 662.811 878.805 659.104V553.684C878.805 549.977 875.922 546.943 872.275 546.703V130.608C872.275 58.4752 813.799 0 741.667 0H138.071Z" fill="#11181A"/>
</svg>
